<?xml version="1.0" encoding="UTF-8"?>
<svg width="10px" height="10px" viewBox="0 0 10 10" version="1.1" xmlns="http://www.w3.org/2000/svg" xmlns:xlink="http://www.w3.org/1999/xlink">
    <!-- Generator: Sketch 61 (89581) - https://sketch.com -->
    <title>3.Icons/Outlined/delete</title>
    <desc>Created with Sketch.</desc>
    <g id="200518_Mac微信.通讯录管理器.交互" stroke="none" stroke-width="1" fill="none" fill-rule="evenodd" fill-opacity="0.9">
        <g id="通讯录管理器-多选状态" transform="translate(-308.000000, -444.000000)" fill="#000000">
            <g id="3.Icons/Outlined/delete" transform="translate(307.000000, 443.000000)">
                <g id="icon39" transform="translate(1.500000, 1.500000)">
                    <path d="M1.88677626,1.69999847 L2.29295292,8.52376745 C2.30553082,8.73507626 2.48056336,8.9 2.69224618,8.9 L6.30775382,8.9 C6.51943664,8.9 6.69446918,8.73507626 6.70704708,8.52376745 L7.11322374,1.69999847 L1.88677626,1.69999847 Z M7.71428572,1.6999985 L7.30598698,8.55941863 C7.27454222,9.08769064 6.83696086,9.5 6.30775382,9.5 L2.69224618,9.5 C2.16303914,9.5 1.72545778,9.08769064 1.69401302,8.55941863 L1.28571428,1.6999985 L0.25,1.6999985 L0.25,1.34999847 C0.25,1.21192729 0.361928813,1.09999847 0.5,1.09999847 L8.5,1.09999847 C8.63807119,1.09999847 8.75,1.21192729 8.75,1.34999847 L8.75,1.6999985 L7.71428572,1.6999985 Z M3.8500061,3 L4.1000061,7.5 L3.5,7.5 L3.25,3 L3.8500061,3 Z M5.75,3 L5.5,7.5 L4.8999939,7.5 L5.1499939,3 L5.75,3 Z M5.5,1.36427846e-05 C5.63807119,1.36427846e-05 5.75,0.111942455 5.75,0.250013643 L5.75,0.600012117 L3.25,0.600012117 L3.25,0.250013643 C3.25,0.111942455 3.36192881,1.36427846e-05 3.5,1.36427846e-05 L5.5,1.36427846e-05 Z" id="图标颜色"></path>
                </g>
            </g>
        </g>
    </g>
</svg>